<svg version="1.1" id="Layer_1" xmlns="http://www.w3.org/2000/svg" xmlns:xlink="http://www.w3.org/1999/xlink" x="0px" y="0px"
	 width="100%" viewBox="0 0 1254 1254" enable-background="new 0 0 1254 1254" xml:space="preserve">
<path fill="#FEFEFE" opacity="1.000000" stroke="none" 
	d="
M661.000000,1255.000000 
	C440.666656,1255.000000 220.833328,1255.000000 1.000000,1255.000000 
	C1.000000,837.000000 1.000000,419.000000 1.000000,1.000000 
	C419.000000,1.000000 837.000000,1.000000 1255.000000,1.000000 
	C1255.000000,419.000000 1255.000000,837.000000 1255.000000,1255.000000 
	C1057.166626,1255.000000 859.333313,1255.000000 661.000000,1255.000000 
M575.666077,42.119373 
	C567.730286,43.068562 559.776672,43.888802 551.861633,44.987545 
	C494.033508,53.015099 438.620941,69.256142 385.975861,94.544296 
	C289.626068,140.826096 211.305267,208.096008 151.722366,296.939362 
	C92.293037,385.553650 60.390083,483.335785 55.286839,589.809387 
	C53.465027,627.819519 55.530148,665.721436 61.005909,703.421021 
	C70.511978,768.868652 90.978371,830.670837 122.432663,888.830139 
	C154.408447,947.953674 196.697678,998.832703 246.398087,1043.794922 
	C310.570496,1101.849243 384.120667,1143.333740 466.895966,1168.390137 
	C539.608276,1190.400391 613.818970,1197.130859 689.301636,1188.718994 
	C761.639709,1180.657593 829.968506,1159.402954 894.377136,1125.441528 
	C963.843445,1088.813354 1023.617065,1040.276855 1072.989014,979.257324 
	C1136.109131,901.246399 1176.277100,812.741577 1193.239624,713.667053 
	C1202.991333,656.709595 1203.874512,599.641663 1196.622192,542.484924 
	C1188.460571,478.162170 1169.592773,417.015015 1140.733276,358.848785 
	C1109.407104,295.711151 1067.808838,240.372330 1016.187317,192.581024 
	C954.271606,135.259155 883.156555,93.429871 802.832703,67.363472 
	C753.771057,51.442154 703.526306,41.667549 651.957581,40.289597 
	C626.867188,39.619167 601.711365,41.395439 575.666077,42.119373 
z"/>
<path fill="#18B3FD" opacity="1.000000" stroke="none" 
	d="
M576.125610,42.091751 
	C601.711365,41.395439 626.867188,39.619167 651.957581,40.289597 
	C703.526306,41.667549 753.771057,51.442154 802.832703,67.363472 
	C883.156555,93.429871 954.271606,135.259155 1016.187317,192.581024 
	C1067.808838,240.372330 1109.407104,295.711151 1140.733276,358.848785 
	C1169.592773,417.015015 1188.460571,478.162170 1196.622192,542.484924 
	C1203.874512,599.641663 1202.991333,656.709595 1193.239624,713.667053 
	C1176.277100,812.741577 1136.109131,901.246399 1072.989014,979.257324 
	C1023.617065,1040.276855 963.843445,1088.813354 894.377136,1125.441528 
	C829.968506,1159.402954 761.639709,1180.657593 689.301636,1188.718994 
	C613.818970,1197.130859 539.608276,1190.400391 466.895966,1168.390137 
	C384.120667,1143.333740 310.570496,1101.849243 246.398087,1043.794922 
	C196.697678,998.832703 154.408447,947.953674 122.432663,888.830139 
	C90.978371,830.670837 70.511978,768.868652 61.005909,703.421021 
	C55.530148,665.721436 53.465027,627.819519 55.286839,589.809387 
	C60.390083,483.335785 92.293037,385.553650 151.722366,296.939362 
	C211.305267,208.096008 289.626068,140.826096 385.975861,94.544296 
	C438.620941,69.256142 494.033508,53.015099 551.861633,44.987545 
	C559.776672,43.888802 567.730286,43.068562 576.125610,42.091751 
M407.169250,650.607483 
	C404.847168,652.771484 402.525085,654.935486 400.203033,657.099487 
	C402.751709,659.218872 405.217682,661.451172 407.887238,663.405457 
	C409.055328,664.260559 410.631226,664.570007 412.036224,665.088501 
	C434.043457,673.209961 456.094788,681.214050 478.052582,689.467102 
	C512.805969,702.529602 547.445374,715.897339 582.255493,728.805481 
	C589.766479,731.590759 594.714233,736.261658 597.356506,743.533020 
	C601.446289,754.787903 605.183228,766.172241 609.348572,777.398254 
	C627.462280,826.217163 645.646240,875.010132 663.941406,923.761230 
	C664.896179,926.305481 667.108337,928.377930 668.735168,930.669983 
	C670.663635,928.409851 672.638489,926.186584 674.489502,923.864746 
	C674.981628,923.247559 675.098328,922.329041 675.379517,921.546082 
	C680.048828,908.545105 684.597839,895.499451 689.406311,882.550232 
	C706.624268,836.182556 723.878357,789.828125 741.254517,743.519592 
	C744.091064,735.959900 749.346985,730.760681 757.590576,728.753845 
	C763.239136,727.378906 768.809326,725.530334 774.242188,723.444641 
	C826.454529,703.401062 878.647339,683.306152 930.765808,663.020691 
	C933.377197,662.004211 935.253723,659.099609 937.472351,657.074097 
	C935.474182,655.041931 933.692688,652.708374 931.412170,651.068970 
	C929.433228,649.646362 926.910706,648.955627 924.591248,648.035217 
	C914.227295,643.923035 903.906921,639.692505 893.467712,635.779907 
	C847.665283,618.613342 801.867310,601.432800 755.963257,584.541138 
	C748.064636,581.634583 743.026672,576.744812 740.487366,568.932983 
	C739.612000,566.239868 738.717590,563.550171 737.731079,560.896423 
	C718.585144,509.390259 699.429993,457.887482 680.259399,406.390472 
	C677.706543,399.532837 675.297424,392.606354 672.371521,385.908417 
	C670.481018,381.580597 667.476074,381.577576 665.078918,385.610962 
	C663.813416,387.740204 662.877686,390.096405 662.022461,392.434113 
	C642.703857,445.243896 623.408264,498.062195 604.135315,550.888672 
	C601.798401,557.294006 599.782593,563.820557 597.315491,570.173401 
	C594.544373,577.308960 589.830261,582.029419 582.130798,584.745361 
	C558.597168,593.046814 535.330017,602.105591 511.976349,610.915161 
	C477.255524,624.012878 442.549347,637.149414 407.169250,650.607483 
M408.165344,321.614166 
	C398.531097,348.433258 380.745270,367.312531 353.772217,377.067383 
	C342.196045,381.253906 330.468811,385.021606 318.836243,389.054657 
	C316.736237,389.782745 314.762878,390.876038 312.731049,391.800720 
	C312.687592,392.311615 312.644135,392.822510 312.600677,393.333405 
	C314.382050,394.183411 316.095245,395.242554 317.956055,395.848694 
	C328.393250,399.248688 338.910431,402.406891 349.318207,405.892822 
	C378.307556,415.602417 398.645660,434.317719 408.381775,463.660339 
	C412.202026,475.173706 415.387634,486.896973 418.924713,498.505646 
	C419.517639,500.451508 420.430176,502.299957 421.195068,504.193420 
	C421.652740,504.211548 422.110382,504.229645 422.568054,504.247772 
	C423.372772,502.198395 424.333405,500.195221 424.956238,498.091980 
	C428.354919,486.615021 431.241119,474.966888 435.102081,463.650085 
	C443.706390,438.430206 459.670105,419.462097 484.774719,409.505249 
	C498.039642,404.244171 511.885590,400.452667 525.442444,395.917664 
	C527.421936,395.255463 529.252197,394.146790 531.151489,393.244720 
	C531.067261,392.706207 530.983032,392.167694 530.898804,391.629181 
	C528.652954,390.742676 526.439941,389.758850 524.155518,388.986481 
	C514.226990,385.629639 504.238678,382.446228 494.343567,378.994934 
	C469.023865,370.163727 448.755188,355.179504 438.500885,329.663910 
	C433.006256,315.991669 429.461456,301.536804 425.006134,287.444824 
	C424.296570,285.200531 423.425232,283.007416 422.628693,280.790619 
	C422.003693,280.789062 421.378693,280.787506 420.753693,280.785919 
	C416.652588,294.154419 412.551514,307.522888 408.165344,321.614166 
M801.449524,478.053680 
	C793.594421,480.994446 785.739319,483.935211 777.884216,486.875977 
	C791.391602,493.028046 806.194214,495.645447 816.961853,506.393433 
	C827.843079,517.254761 830.502136,532.157227 835.960083,545.944519 
	C838.103943,541.047363 839.574707,536.213562 841.002197,531.367065 
	C846.197510,513.727783 856.183716,500.402740 874.316528,494.470184 
	C879.214172,492.867828 884.192749,491.514008 889.099365,489.937653 
	C890.836731,489.379517 892.470520,488.498810 895.472290,487.189240 
	C880.457031,481.447571 865.620239,478.801605 854.754822,468.162994 
	C843.775696,457.413147 841.310730,442.424072 835.846924,428.718384 
	C834.598328,430.436737 833.951233,432.059662 833.422424,433.720276 
	C831.909607,438.470947 830.580750,443.284485 828.935303,447.987823 
	C824.165100,461.622772 816.118713,472.367737 801.449524,478.053680 
M529.190369,550.552246 
	C529.622131,549.116516 530.168091,547.704224 530.468018,546.241455 
	C533.710083,530.430969 543.435730,521.211182 559.069458,517.895691 
	C560.769104,517.535278 562.389099,516.799500 563.878479,516.294556 
	C555.662964,511.878326 546.271851,509.066162 540.225830,502.948242 
	C534.236877,496.888062 531.620911,487.494537 528.128906,480.731659 
	C524.620789,487.565735 522.046265,496.870636 516.131531,502.897522 
	C510.213531,508.927734 500.957001,511.681549 492.571899,516.189758 
	C495.974091,517.334961 499.330322,518.511414 502.716095,519.595520 
	C512.919495,522.862549 520.041626,529.269470 523.333252,539.641113 
	C524.441772,543.134033 525.526978,546.638550 526.810730,550.067444 
	C527.028931,550.650269 528.199646,550.876526 529.190369,550.552246 
z"/>
<path fill="#FDFDFE" opacity="1.000000" stroke="none" 
	d="
M407.503082,650.438477 
	C442.549347,637.149414 477.255524,624.012878 511.976349,610.915161 
	C535.330017,602.105591 558.597168,593.046814 582.130798,584.745361 
	C589.830261,582.029419 594.544373,577.308960 597.315491,570.173401 
	C599.782593,563.820557 601.798401,557.294006 604.135315,550.888672 
	C623.408264,498.062195 642.703857,445.243896 662.022461,392.434113 
	C662.877686,390.096405 663.813416,387.740204 665.078918,385.610962 
	C667.476074,381.577576 670.481018,381.580597 672.371521,385.908417 
	C675.297424,392.606354 677.706543,399.532837 680.259399,406.390472 
	C699.429993,457.887482 718.585144,509.390259 737.731079,560.896423 
	C738.717590,563.550171 739.612000,566.239868 740.487366,568.932983 
	C743.026672,576.744812 748.064636,581.634583 755.963257,584.541138 
	C801.867310,601.432800 847.665283,618.613342 893.467712,635.779907 
	C903.906921,639.692505 914.227295,643.923035 924.591248,648.035217 
	C926.910706,648.955627 929.433228,649.646362 931.412170,651.068970 
	C933.692688,652.708374 935.474182,655.041931 937.472351,657.074097 
	C935.253723,659.099609 933.377197,662.004211 930.765808,663.020691 
	C878.647339,683.306152 826.454529,703.401062 774.242188,723.444641 
	C768.809326,725.530334 763.239136,727.378906 757.590576,728.753845 
	C749.346985,730.760681 744.091064,735.959900 741.254517,743.519592 
	C723.878357,789.828125 706.624268,836.182556 689.406311,882.550232 
	C684.597839,895.499451 680.048828,908.545105 675.379517,921.546082 
	C675.098328,922.329041 674.981628,923.247559 674.489502,923.864746 
	C672.638489,926.186584 670.663635,928.409851 668.735168,930.669983 
	C667.108337,928.377930 664.896179,926.305481 663.941406,923.761230 
	C645.646240,875.010132 627.462280,826.217163 609.348572,777.398254 
	C605.183228,766.172241 601.446289,754.787903 597.356506,743.533020 
	C594.714233,736.261658 589.766479,731.590759 582.255493,728.805481 
	C547.445374,715.897339 512.805969,702.529602 478.052582,689.467102 
	C456.094788,681.214050 434.043457,673.209961 412.036224,665.088501 
	C410.631226,664.570007 409.055328,664.260559 407.887238,663.405457 
	C405.217682,661.451172 402.751709,659.218872 400.203033,657.099487 
	C402.525085,654.935486 404.847168,652.771484 407.503082,650.438477 
z"/>
<path fill="#FCFDFE" opacity="1.000000" stroke="none" 
	d="
M408.307861,321.252777 
	C412.551514,307.522888 416.652588,294.154419 420.753693,280.785919 
	C421.378693,280.787506 422.003693,280.789062 422.628693,280.790619 
	C423.425232,283.007416 424.296570,285.200531 425.006134,287.444824 
	C429.461456,301.536804 433.006256,315.991669 438.500885,329.663910 
	C448.755188,355.179504 469.023865,370.163727 494.343567,378.994934 
	C504.238678,382.446228 514.226990,385.629639 524.155518,388.986481 
	C526.439941,389.758850 528.652954,390.742676 530.898804,391.629181 
	C530.983032,392.167694 531.067261,392.706207 531.151489,393.244720 
	C529.252197,394.146790 527.421936,395.255463 525.442444,395.917664 
	C511.885590,400.452667 498.039642,404.244171 484.774719,409.505249 
	C459.670105,419.462097 443.706390,438.430206 435.102081,463.650085 
	C431.241119,474.966888 428.354919,486.615021 424.956238,498.091980 
	C424.333405,500.195221 423.372772,502.198395 422.568054,504.247772 
	C422.110382,504.229645 421.652740,504.211548 421.195068,504.193420 
	C420.430176,502.299957 419.517639,500.451508 418.924713,498.505646 
	C415.387634,486.896973 412.202026,475.173706 408.381775,463.660339 
	C398.645660,434.317719 378.307556,415.602417 349.318207,405.892822 
	C338.910431,402.406891 328.393250,399.248688 317.956055,395.848694 
	C316.095245,395.242554 314.382050,394.183411 312.600677,393.333405 
	C312.644135,392.822510 312.687592,392.311615 312.731049,391.800720 
	C314.762878,390.876038 316.736237,389.782745 318.836243,389.054657 
	C330.468811,385.021606 342.196045,381.253906 353.772217,377.067383 
	C380.745270,367.312531 398.531097,348.433258 408.307861,321.252777 
z"/>
<path fill="#FAFCFD" opacity="1.000000" stroke="none" 
	d="
M801.791992,477.891479 
	C816.118713,472.367737 824.165100,461.622772 828.935303,447.987823 
	C830.580750,443.284485 831.909607,438.470947 833.422424,433.720276 
	C833.951233,432.059662 834.598328,430.436737 835.846924,428.718384 
	C841.310730,442.424072 843.775696,457.413147 854.754822,468.162994 
	C865.620239,478.801605 880.457031,481.447571 895.472290,487.189240 
	C892.470520,488.498810 890.836731,489.379517 889.099365,489.937653 
	C884.192749,491.514008 879.214172,492.867828 874.316528,494.470184 
	C856.183716,500.402740 846.197510,513.727783 841.002197,531.367065 
	C839.574707,536.213562 838.103943,541.047363 835.960083,545.944519 
	C830.502136,532.157227 827.843079,517.254761 816.961853,506.393433 
	C806.194214,495.645447 791.391602,493.028046 777.884216,486.875977 
	C785.739319,483.935211 793.594421,480.994446 801.791992,477.891479 
z"/>
<path fill="#F6FBFD" opacity="1.000000" stroke="none" 
	d="
M529.060303,550.909912 
	C528.199646,550.876526 527.028931,550.650269 526.810730,550.067444 
	C525.526978,546.638550 524.441772,543.134033 523.333252,539.641113 
	C520.041626,529.269470 512.919495,522.862549 502.716095,519.595520 
	C499.330322,518.511414 495.974091,517.334961 492.571899,516.189758 
	C500.957001,511.681549 510.213531,508.927734 516.131531,502.897522 
	C522.046265,496.870636 524.620789,487.565735 528.128906,480.731659 
	C531.620911,487.494537 534.236877,496.888062 540.225830,502.948242 
	C546.271851,509.066162 555.662964,511.878326 563.878479,516.294556 
	C562.389099,516.799500 560.769104,517.535278 559.069458,517.895691 
	C543.435730,521.211182 533.710083,530.430969 530.468018,546.241455 
	C530.168091,547.704224 529.622131,549.116516 529.060303,550.909912 
z"/>
</svg>